<?xml version="1.0" standalone="no"?>
<!DOCTYPE svg PUBLIC "-//W3C//DTD SVG 20010904//EN"
 "http://www.w3.org/TR/2001/REC-SVG-20010904/DTD/svg10.dtd">
<svg version="1.0" xmlns="http://www.w3.org/2000/svg"
 width="200.000000pt" height="200.000000pt" viewBox="0 0 200.000000 200.000000"
 preserveAspectRatio="xMidYMid meet">

<g transform="translate(0.000000,200.000000) scale(0.100000,-0.100000)"
fill="#000000" stroke="none">
<path d="M635 1641 l-370 -207 0 -423 0 -423 67 -39 68 -38 2 421 3 421 303
169 c166 92 308 168 315 168 6 0 68 -32 136 -70 68 -39 128 -70 132 -70 6 0
42 132 36 136 -36 25 -299 164 -309 163 -7 0 -179 -94 -383 -208z"/>
<path d="M770 1396 l-225 -131 -3 -431 -2 -430 231 -133 c205 -119 233 -132
252 -122 12 7 180 103 372 214 l350 203 3 427 c1 235 0 427 -4 427 -3 0 -35
-16 -70 -36 l-64 -36 -2 -350 -3 -351 -302 -174 -301 -174 -161 93 -161 93 3
349 2 349 150 88 c83 48 157 88 165 88 8 1 85 -39 170 -89 138 -79 157 -88
175 -76 11 7 42 25 68 41 26 15 47 29 45 30 -7 6 -457 265 -460 264 -2 -1
-104 -60 -228 -133z"/>
<path d="M910 1151 l-85 -48 -3 -269 -2 -269 91 -51 91 -52 229 131 c126 72
229 134 229 137 0 6 -123 80 -133 80 -4 0 -79 -41 -166 -91 -212 -121 -201
-127 -201 114 l0 182 90 50 c49 28 90 52 90 55 0 6 -129 80 -139 80 -3 0 -44
-22 -91 -49z"/>
</g>
</svg>
